<svg id="Layer_1" data-name="Layer 1" xmlns="http://www.w3.org/2000/svg" viewBox="0 0 90.38 20.75"><defs><style>.cls-1{fill:#fff;}</style></defs><title>logo-white</title><path class="cls-1" d="M11.08,14.16a3.29,3.29,0,1,0,3.29,3.29,3.29,3.29,0,0,0-3.29-3.29"/><path class="cls-1" d="M1.57,12.81a1.57,1.57,0,1,0,1.57,1.57,1.57,1.57,0,0,0-1.57-1.57"/><path class="cls-1" d="M19.51,4a4,4,0,0,0-8-.48h0c-0.1.73-.23,2.51-1.11,3.27C10,7.18,9.6,7.72,7.63,7.4A2.2,2.2,0,0,1,6,6.5,2.83,2.83,0,0,1,6,4.64,1.92,1.92,0,0,0,6.08,4,1.95,1.95,0,1,0,3.29,5.8h0A2.53,2.53,0,0,1,4.82,7a4,4,0,0,1-.26,2.1L4.5,9.25h0a2.7,2.7,0,0,0,5.13,1.67h0a1.57,1.57,0,0,0,.05-0.18v0a3.49,3.49,0,0,1,1.58-2.44c0.9-.48,2.83-0.33,3.78-0.26l0.33,0h0.19a4,4,0,0,0,3.93-4"/><path class="cls-1" d="M20.26,16l0.13-.18A0.39,0.39,0,0,1,21,15.78a2.81,2.81,0,0,0,1.57.52,0.93,0.93,0,0,0,1.09-.85c0-1.26-3.31-.84-3.31-3,0-1.22,1.07-1.85,2.32-1.85a3.26,3.26,0,0,1,1.78.5,0.37,0.37,0,0,1,.14.56l-0.11.19a0.37,0.37,0,0,1-.56.14,2.55,2.55,0,0,0-1.31-.37,0.9,0.9,0,0,0-1.08.81c0,1.28,3.31.82,3.31,3a2,2,0,0,1-2.31,1.89,3.58,3.58,0,0,1-2.16-.7A0.37,0.37,0,0,1,20.26,16"/><path class="cls-1" d="M26.12,11.16a0.37,0.37,0,0,1,.42-0.42h0.29a0.35,0.35,0,0,1,.42.36v0.38a2.34,2.34,0,0,1,0,.34h0a2.32,2.32,0,0,1,2.16-1.23c1.73,0,2.82,1.37,2.82,3.36S31,17.32,29.32,17.32a2.2,2.2,0,0,1-2-1.14h0a3.67,3.67,0,0,1,0,.56v2.55a0.37,0.37,0,0,1-.41.42H26.54a0.37,0.37,0,0,1-.42-0.42V11.16Zm3,5.09c1,0,1.85-.83,1.85-2.28s-0.75-2.3-1.82-2.3-1.85.67-1.85,2.31a2,2,0,0,0,1.82,2.27"/><path class="cls-1" d="M36.43,10.59c1.78,0,2.77,1.27,2.77,3.06a0.43,0.43,0,0,1-.43.43H34.48a2.17,2.17,0,0,0,2.22,2.17,2.63,2.63,0,0,0,1.54-.51,0.37,0.37,0,0,1,.57.14l0.11,0.19a0.38,0.38,0,0,1-.13.56,3.82,3.82,0,0,1-2.17.69A3.27,3.27,0,0,1,33.22,14a3.15,3.15,0,0,1,3.21-3.36M38,13.27a1.56,1.56,0,0,0-1.56-1.71,1.89,1.89,0,0,0-1.88,1.71H38Z"/><path class="cls-1" d="M43.35,10.59c1.78,0,2.77,1.27,2.77,3.06a0.43,0.43,0,0,1-.43.43H41.39a2.17,2.17,0,0,0,2.22,2.17,2.63,2.63,0,0,0,1.54-.51,0.37,0.37,0,0,1,.57.14l0.11,0.19a0.38,0.38,0,0,1-.13.56,3.82,3.82,0,0,1-2.17.69A3.27,3.27,0,0,1,40.14,14a3.15,3.15,0,0,1,3.21-3.36m1.54,2.68a1.56,1.56,0,0,0-1.56-1.71,1.89,1.89,0,0,0-1.88,1.71h3.44Z"/><path class="cls-1" d="M50,10.59a2.18,2.18,0,0,1,2,1.1h0a2.46,2.46,0,0,1,0-.43V8.62a0.37,0.37,0,0,1,.42-0.42h0.39a0.37,0.37,0,0,1,.42.42v8.12a0.37,0.37,0,0,1-.42.42H52.44A0.36,0.36,0,0,1,52,16.77V16.4a2,2,0,0,1,0-.32h0a2.3,2.3,0,0,1-2.12,1.23c-1.74,0-2.83-1.37-2.83-3.36s1.21-3.36,2.91-3.36m0.16,5.66c1,0,1.85-.67,1.85-2.31a2,2,0,0,0-1.83-2.27c-1,0-1.84.83-1.84,2.29s0.75,2.3,1.82,2.3"/><path class="cls-1" d="M54.85,8.62a0.37,0.37,0,0,1,.42-0.42h0.39a0.37,0.37,0,0,1,.42.42v6.64c0,0.72.32,0.83,0.58,0.85a0.34,0.34,0,0,1,.33.37v0.31a0.38,0.38,0,0,1-.43.43,1.55,1.55,0,0,1-1.71-1.8V8.62Z"/><path class="cls-1" d="M61,10.59c1.78,0,2.77,1.27,2.77,3.06a0.43,0.43,0,0,1-.43.43H59a2.17,2.17,0,0,0,2.22,2.17,2.63,2.63,0,0,0,1.54-.51,0.37,0.37,0,0,1,.57.14l0.11,0.19a0.37,0.37,0,0,1-.13.56,3.82,3.82,0,0,1-2.17.69A3.27,3.27,0,0,1,57.77,14,3.15,3.15,0,0,1,61,10.59m1.54,2.68A1.56,1.56,0,0,0,61,11.55a1.89,1.89,0,0,0-1.88,1.71h3.44Z"/><path class="cls-1" d="M67.61,10.59a2.18,2.18,0,0,1,2,1.1h0a2.46,2.46,0,0,1,0-.43V8.62A0.37,0.37,0,0,1,70,8.2H70.4a0.37,0.37,0,0,1,.42.42v8.12a0.37,0.37,0,0,1-.42.42H70.07a0.36,0.36,0,0,1-.42-0.39V16.4a2,2,0,0,1,0-.32h0a2.3,2.3,0,0,1-2.12,1.23c-1.74,0-2.83-1.37-2.83-3.36s1.21-3.36,2.91-3.36m0.16,5.66c1,0,1.85-.67,1.85-2.31a2,2,0,0,0-1.83-2.27c-1,0-1.84.83-1.84,2.29s0.75,2.3,1.82,2.3"/><path class="cls-1" d="M73.6,18.48a3.7,3.7,0,0,0,1.4.28A1.75,1.75,0,0,0,77,17V16.4A2.57,2.57,0,0,1,77,16h0a2,2,0,0,1-1.9,1.09c-1.8,0-2.9-1.42-2.9-3.3s1-3.2,2.87-3.2a2,2,0,0,1,2,1.08h0a0.72,0.72,0,0,1,0-.2V11.1a0.35,0.35,0,0,1,.42-0.36h0.3a0.37,0.37,0,0,1,.42.42V16.9c0,2.12-1.62,2.93-3.19,2.93a4.83,4.83,0,0,1-1.87-.36A0.37,0.37,0,0,1,73,18.92l0.09-.22a0.36,0.36,0,0,1,.53-0.22M77,13.83c0-1.69-.83-2.17-1.78-2.17-1.16,0-1.78.81-1.78,2.08S74.18,16,75.34,16c0.89,0,1.7-.53,1.7-2.2"/><path class="cls-1" d="M82.71,10.59c1.78,0,2.77,1.27,2.77,3.06a0.43,0.43,0,0,1-.43.43H80.76A2.17,2.17,0,0,0,83,16.25a2.63,2.63,0,0,0,1.54-.51,0.37,0.37,0,0,1,.57.14l0.11,0.19a0.38,0.38,0,0,1-.13.56,3.82,3.82,0,0,1-2.17.69A3.27,3.27,0,0,1,79.5,14a3.15,3.15,0,0,1,3.21-3.36m1.54,2.68a1.56,1.56,0,0,0-1.56-1.71,1.89,1.89,0,0,0-1.88,1.71h3.44Z"/><path class="cls-1" d="M86.82,11.16a0.37,0.37,0,0,1,.42-0.42H87.6a0.37,0.37,0,0,1,.42.42V11.9a3,3,0,0,1,0,.48h0a2.26,2.26,0,0,1,2-1.69,0.36,0.36,0,0,1,.41.42v0.36a0.39,0.39,0,0,1-.46.42c-1.26,0-1.87,1.36-1.87,2.63v2.23a0.37,0.37,0,0,1-.42.42H87.24a0.37,0.37,0,0,1-.42-0.42V11.16Z"/></svg>